# xmcd CD database file
#
# Track frame offsets:
#	151
#	20581
#	37302
#	51195
#	73140
#	93589
#	107299
#	124060
#	138330
#	156126
#	180438
#	192402
#	207069
#	222064
#	231207
#	249943
#	267202
#	279379
#	299765
#	320582
#
# Disc length: 4486 seconds
#
# Revision: 0
# Processed by: cddbd v1.5.2PL0 Copyright (c) Steve Scherf et al.
# Submitted via: CDex 1.51
#
DISCID=2d118414
DTITLE=Various Artist -  20 jaar - Jazz by the Sea
DYEAR=2010
DGENRE=Jazz
TTITLE0=New Orleans Dixie Skaters - Buddy Bolden Bleus
TTITLE1=Limehouse Jazzband - I need lovin'
TTITLE2=Dixie Express - Choo Choo Sisters - Chattanooga Choo Choo
TTITLE3=The Bleu Rhytm Four - Isle of Capri
TTITLE4=Storyville Jassband - You took advantage of me
TTITLE5=New Orleans Syncopators - Petite Fleur
TTITLE6=Meneer Dinges - Ain't misbehaving'
TTITLE7=Dixie Swing Band - Muskrat Ramble
TTITLE8=Trio Grande - Lover come back to me
TTITLE9=Spirit of Gospel - His eye is on the sparrow
TTITLE10=Jay Jay's Norder Jazzmen  - Harlem Bound
TTITLE11=Basily Boys - Bleus for Ike
TTITLE12=Chris Peters - Audubon  - Le temps des cerises
TTITLE13=Willie Ashman Original Jazzband - Way down yonder 
TTITLE14=Jazz-O-Matic-Four - My honey's lovin' arms 
TTITLE15=Oriental Jazzband - Ciribiribin
TTITLE16=Andor's Jazzband Holland - I'll make fun for you
TTITLE17=Basin Street Jazz Band - The lonesomest girl in town
TTITLE18=Jazzpiration - I'm alone because i love you
TTITLE19=Paradice Jazzband - South Rampart Street Parade 
EXTD=YEAR: 2010
EXTT0=
EXTT1=
EXTT2=
EXTT3=
EXTT4=
EXTT5=
EXTT6=
EXTT7=
EXTT8=
EXTT9=
EXTT10=
EXTT11=
EXTT12=
EXTT13=
EXTT14=
EXTT15=
EXTT16=
EXTT17=
EXTT18=
EXTT19=
PLAYORDER=
